<?xml version="1.0" encoding="UTF-8"?>
<svg width="237px" height="115px" viewBox="0 0 237 115" version="1.1" xmlns="http://www.w3.org/2000/svg" xmlns:xlink="http://www.w3.org/1999/xlink">
    <!-- Generator: Sketch 57.1 (83088) - https://sketch.com -->
    <title>Hushkey Logo (White)@3x</title>
    <desc>Created with Sketch.</desc>
    <defs>
        <polygon id="path-1" points="0.000213084112 0.295483117 37.6559467 0.295483117 37.6559467 57.5432718 0.000213084112 57.5432718"></polygon>
    </defs>
    <g id="Hushkey-Logo-(White)" stroke="none" stroke-width="1" fill="none" fill-rule="evenodd">
        <g id="Group-26-Copy-2" transform="translate(21.000000, 29.000000)">
            <g id="Group-3">
                <mask id="mask-2" fill="white">
                    <use xlink:href="#path-1"></use>
                </mask>
                <g id="Clip-2"></g>
                <path d="M32.7753907,18.6853003 C32.2487178,18.8808769 32.2128486,18.8586363 31.8765308,18.4586573 C31.8168673,18.388052 31.6215402,18.4300622 31.4890729,18.4201774 C31.496886,18.5243202 31.4645682,18.6807109 31.5203252,18.7237802 C31.7486804,18.9006464 31.9866243,19.0898686 32.2533346,19.1862448 C32.6525121,19.3306326 32.8247551,19.1509421 32.7753907,18.6853003 M25.8483813,10.4417803 C25.9044935,10.3330481 25.9258019,10.2631489 25.969129,10.2123131 C26.275615,9.85222613 26.5625682,9.4709576 26.9024374,9.14476118 C27.3239888,8.73983987 27.3761944,8.27914039 27.2312972,7.76054457 C26.8672785,6.4596422 26.5220822,5.15273838 26.1207738,3.86313285 C25.9733907,3.38972442 25.7144935,2.94349902 25.4595028,2.51245376 C25.2837084,2.21520551 25.1100449,2.20002537 24.8767178,2.45067413 C24.6210168,2.72497566 24.3802318,3.02857839 24.2030168,3.35689296 C23.0509421,5.49376191 22.5388299,7.80326077 22.3843439,10.2045465 C22.3790168,10.2903319 22.3985495,10.3775295 22.4131103,10.5381565 C22.5143252,10.4318955 22.5757645,10.3909445 22.6045308,10.3337542 C22.7611477,10.0252091 22.9103065,9.7127807 23.0601757,9.40141139 C23.6465121,8.1817051 24.2261009,6.95917459 24.824157,5.74546975 C24.9086804,5.57460496 25.0816336,5.44680939 25.2133907,5.29889132 C25.2730542,5.50188151 25.3717832,5.70275355 25.3859888,5.90892098 C25.4570168,6.94364143 25.5063813,7.98012701 25.5600075,9.01625956 C25.5632037,9.08121642 25.5355028,9.14758539 25.5223626,9.21360133 C25.4896897,9.22560423 25.4570168,9.23760713 25.4243439,9.24961003 C25.2560075,8.95342086 25.0880262,8.65687866 24.9196897,8.35998344 C24.8923439,8.35610015 24.8649981,8.35186383 24.8376523,8.34798054 C24.7953907,8.7041842 24.7428299,9.05932879 24.7137084,9.41694455 C24.6252785,10.492263 24.5677458,11.5711118 24.4519701,12.6436061 C24.4107738,13.0259337 24.2381757,13.3937872 24.1255963,13.7683483 C24.1412224,13.778939 24.1561383,13.7895298 24.1717645,13.8001206 C25.2222692,12.495335 26.273129,11.1905493 27.3236336,9.88576364 C27.3147551,9.86211087 27.3062318,9.83810508 27.2969981,9.81445231 C26.8346056,10.0146183 26.3722131,10.2151373 25.8483813,10.4417803 M35.4520822,2.70520618 C35.4041383,2.61165418 35.3455402,2.5223385 35.3110916,2.42419715 C35.2656336,2.29640158 35.2585308,2.1523668 35.1995776,2.03269085 C35.1310355,1.89359843 35.0237832,1.77321642 34.9332224,1.64471481 C34.8227738,1.76368471 34.6594093,1.86465027 34.6096897,2.00480176 C34.3170542,2.83547293 34.0080822,3.66367292 33.7868299,4.51376055 C33.5282879,5.50647086 33.3745121,6.52601117 33.1365682,7.5243699 C32.9721383,8.21594866 33.1980075,8.71230381 33.7733346,9.08439366 C33.9654654,9.20865896 34.1657645,9.32021531 34.4243065,9.47378181 C34.6959888,8.05708677 34.8604187,6.6640445 35.4492411,5.38785398 C35.4840449,5.39138424 35.5192037,5.39526753 35.5536523,5.39844477 C35.5536523,5.58731391 35.5532972,5.77653607 35.5536523,5.96540521 C35.5547178,7.52931227 35.5522318,9.09357235 35.5646617,10.6574794 C35.565372,10.7771554 35.6481196,10.9166008 35.732643,11.0115649 C36.5505308,11.9333169 37.1961757,12.9570935 37.6283813,14.1104309 C37.6606991,14.1965693 37.6621196,14.2943576 37.645428,14.4009716 C36.0824561,12.1334829 33.9977832,10.6207647 31.3004935,9.93377524 C33.0239888,11.4330785 34.3085308,13.2151558 35.023428,15.3721473 C34.9907551,15.4000364 34.9580822,15.4279255 34.9254093,15.4561676 C34.7378953,15.2521183 34.5695589,15.0258284 34.3586056,14.8500212 C34.0695215,14.6092572 33.7690729,14.3649629 33.4352411,14.1969223 C32.7917271,13.8728441 32.3240075,14.1849194 32.4042692,14.9019161 C32.459671,15.395447 32.5797084,15.8981567 32.7700636,16.356385 C33.1529047,17.27849 33.6621757,18.1384624 34.3028486,18.9137084 C34.369615,18.9949045 34.438157,19.0761005 34.5152224,19.1467058 C34.8962879,19.4933778 35.1161196,19.4379526 35.3089607,18.9677214 C35.3917084,18.7647312 35.4954093,18.5677425 35.613671,18.3831097 C35.6633907,18.3061499 35.7912411,18.2111858 35.8565869,18.2281311 C35.9450168,18.2507248 36.0277645,18.3626341 36.0749981,18.4554801 C36.1204561,18.5451488 36.1208112,18.6584703 36.1346617,18.76226 C36.1470916,18.855812 36.1446056,18.9514822 36.1595215,19.0443282 C36.4379514,20.7702743 35.4307738,21.7891086 34.1487178,22.6554354 C34.1117832,22.6805003 34.0546056,22.676264 33.9722131,22.6925032 C34.0027551,22.4305576 34.0599327,22.1943829 34.0521196,21.9606794 C34.0318766,21.3651239 34.0148299,20.7667441 33.9342131,20.177543 C33.8777458,19.763443 33.7687178,19.7087239 33.3446804,19.7620309 C32.218886,19.9035945 31.3725869,19.3828805 30.6122318,18.6503507 C30.526643,18.5677425 30.4719514,18.4526559 30.4250729,18.3848748 C30.8864,18.186827 31.3154093,17.9806595 31.7607551,17.8196795 C32.0438019,17.7173018 32.3527738,17.6841173 32.6489607,17.6163363 C32.7249607,17.599038 32.7981196,17.5690307 32.8730542,17.5450249 C32.8315028,17.4677121 32.8062879,17.3734541 32.7455589,17.3169699 C32.4518579,17.0440804 32.0828673,16.9131076 31.6978953,16.9621783 C31.0728486,17.0416093 30.4552598,17.1778775 29.8362505,17.2982595 C29.4445308,17.3745132 29.0584935,17.4800681 28.6657084,17.545378 C28.3414654,17.599391 28.2427364,17.692943 28.3460822,18.0032532 C28.4700262,18.3764022 28.6333907,18.7364891 28.7903626,19.1297606 C28.3773346,19.0467993 27.9838393,18.9588958 27.5871477,18.8900556 C25.9946991,18.614342 24.5009794,18.9055888 23.109185,19.7034285 C22.4187925,20.0991711 22.1023626,20.791809 21.8274841,21.4862119 C21.2624561,22.9103205 21.2049234,24.3930315 21.4336336,25.8863333 C21.8416897,28.5467404 23.1198393,30.812111 24.7840262,32.8727262 C25.5617832,33.8354293 26.4386243,34.7197605 27.2902505,35.6213899 C27.499428,35.8430905 27.5022692,35.9680619 27.2888299,36.1816429 C26.1229047,37.346277 24.7225869,38.0565662 23.1155776,38.4095926 C21.6186617,38.7386133 20.1174841,38.7403784 18.6159514,38.507381 C17.8999888,38.3961776 17.1992972,38.1903632 16.4907925,38.0290302 C16.3913533,38.0060834 16.289428,37.9916094 16.1427551,38.0417391 C16.2262131,38.1183458 16.3075402,38.1977768 16.3945495,38.2708533 C18.1823252,39.7708625 19.8401196,41.393725 21.2425682,43.264765 C22.8421196,45.3984568 24.0194093,47.7361977 24.7524187,50.2956393 C25.1874654,51.8132999 25.4790355,53.3560254 25.5901944,54.9312293 C25.6377832,55.6111582 25.6757832,56.2921461 25.7127178,56.9731341 C25.7230168,57.1577669 25.7141383,57.3431058 25.7141383,57.5284447 C25.685372,57.533034 25.6569607,57.5383294 25.6281944,57.5432718 C25.5312411,57.2580264 25.4318019,56.9734871 25.3369794,56.6875357 C24.4963626,54.1535121 23.2235402,51.8461314 21.6005495,49.730091 C18.6507551,45.882809 14.959428,42.9343323 10.5787738,40.8359432 C9.17987664,40.1658991 7.72593271,39.6289459 6.2155215,39.2727422 C4.60673645,38.8932388 2.97522243,38.6743625 1.31991402,38.962432 C0.947016822,39.0273889 0.582998131,39.1400043 0.213297196,39.2268488 C0.166773832,39.2377926 0.113857944,39.2236716 0.000213084112,39.2180231 C0.102848598,38.9998528 0.175652336,38.8095716 0.27686729,38.6358826 C1.88849346,35.8692145 4.15854953,33.8216612 7.11544673,32.5634751 C7.71421308,32.308237 8.39501682,32.2439861 9.03782056,32.0918318 C9.08647477,32.0801819 9.13548411,32.068885 9.1972785,32.054411 C8.86841869,31.7836397 8.01075514,31.6509018 7.05187664,31.8383588 C6.33946542,31.9778042 5.6544,32.2577542 4.92565234,32.4847502 C4.96471776,32.2570481 4.98993271,31.9813345 5.06096075,31.7179768 C5.48144673,30.1614833 6.15053084,28.7027781 6.88709159,27.2751392 C8.78034393,23.6068417 11.045428,20.1726006 13.5718953,16.9092243 C14.8979888,15.1959871 16.2915589,13.5346448 17.961428,12.1303056 C18.3005869,11.8450603 18.6695776,11.5951176 19.0737271,11.3543536 C19.063428,12.5553495 19.070886,13.7210427 19.6518953,14.8224852 C19.6838579,14.6713898 19.7353533,14.5217066 19.7442318,14.3695523 C19.8539701,12.3858968 20.3316336,10.477789 20.9165495,8.58874456 C21.5135402,6.66122029 22.2298579,4.78206063 23.2338393,3.02504812 C23.5133346,2.53610653 23.8446804,2.06340414 24.223615,1.64789204 C24.7769234,1.04139265 25.470157,1.1169403 25.9680636,1.77533458 C26.4208673,2.37442042 26.6591664,3.07023551 26.835671,3.78405493 C27.0895963,4.81136183 27.3136897,5.8464353 27.5455963,6.87903759 C27.6624374,7.39692736 27.6809047,7.39904551 28.2033159,7.4269346 C28.7186243,7.45482369 29.2328673,7.51554423 29.7460449,7.57591175 C29.9960636,7.60521295 30.1278206,7.52119266 30.2794654,7.30514049 C30.8334841,6.51365524 31.4102318,5.73629106 32.0161009,4.9832857 C32.9810168,3.78476099 33.6817084,2.43973031 34.3124374,1.05092436 C34.3902131,0.879706546 34.4825495,0.713078074 34.585185,0.555275262 C34.8103439,0.208250287 35.0628486,0.208250287 35.291914,0.558099473 C35.5980449,1.02550646 35.6697832,1.55328096 35.6459888,2.09517652 C35.6374654,2.29110619 35.5809981,2.48491769 35.5469047,2.67943525 C35.5152972,2.68790789 35.4836897,2.69638052 35.4520822,2.70520618" id="Fill-1" fill="#FFFFFF" mask="url(#mask-2)"></path>
            </g>
            <path d="M40.3751057,28.3361556 C40.514709,28.3539471 40.6394455,28.3859719 40.7638193,28.3827694 C41.1246122,28.3738736 41.4933824,28.3916652 41.8432972,28.3215665 C42.2062657,28.2493328 42.3806792,27.7945809 42.1903111,27.4778914 C42.1177899,27.3576205 41.9528042,27.2192023 41.8302434,27.2195581 C41.6924531,27.2195581 41.5347195,27.3476573 41.4244873,27.4572532 C41.3392749,27.5415851 41.3117169,27.6821383 41.2624025,27.7992067 C41.1108332,28.1632217 40.9763064,28.2286946 40.5948449,28.1568168 C40.1187433,28.0667916 39.7652025,27.8290965 39.5509024,27.3949828 C39.3822907,27.0551643 39.4305173,26.8203159 39.7503357,26.6036148 C40.1096782,26.3605823 40.4853379,26.1488629 41.0165556,26.0446045 C40.8965331,26.1936976 40.8203858,26.2620171 40.7790487,26.3470607 C40.7279213,26.4530983 40.706165,26.5726575 40.6713548,26.6865234 C40.7892017,26.7103641 40.915026,26.7722787 41.0227199,26.7498613 C41.2413713,26.7036033 41.4571219,26.6278113 41.6609064,26.5356511 C42.0191611,26.3733922 42.0416426,26.2990236 41.8730309,25.9175728 L42.5931663,25.9175728 C42.6105713,25.8827014 42.628339,25.8481858 42.6457441,25.8136702 C42.0129968,25.2229909 41.3798868,24.6323115 40.7467768,24.0416322 C40.7565672,24.0277548 40.7656323,24.0138774 40.7754227,24 C40.9045104,24.0818411 41.0470145,24.1490932 41.1612354,24.2480141 C42.0311271,25.0013082 42.9140725,25.7428598 43.7549557,26.5271112 C44.1563605,26.9010895 44.0392388,27.6305429 43.588157,27.910226 C43.6178906,27.6960157 43.6465365,27.4907013 43.6777206,27.2643928 C43.3259929,27.3572647 42.9887693,27.971073 43.1367126,28.2066331 C43.1929165,28.2966583 43.3412223,28.3311739 43.5065706,28.4244016 C43.4550806,28.5307951 43.4235339,28.6987473 43.321279,28.7909075 C42.9992849,29.0805538 42.6442937,29.3339055 42.3164979,29.6175027 C42.1826963,29.7331477 42.0267758,29.8754801 41.9839883,30.0327574 C41.8599771,30.4928468 41.6202945,30.8202112 41.1706632,31.0290839 C40.8352527,31.1852937 40.5535079,31.4610627 40.2119331,31.5941434 C39.8424376,31.7378991 39.5244322,31.8649308 39.2571916,32.2026143 C38.8731919,32.687256 38.2379063,32.7712321 37.6504847,32.83884 C37.1606041,32.8954171 36.6605705,32.8900796 36.1663386,32.8747789 C35.9085258,32.8669506 35.8523218,32.9559084 35.8552227,33.1829285 C35.8773417,35.0556666 35.9658175,36.9316072 35.887132,38.800787 C35.8069961,40.7101757 35.6260557,42.6216994 35.3664299,44.516499 C35.1611949,46.0092097 34.8359374,47.4948038 34.4454108,48.9529989 C33.7687881,51.4836684 32.7640071,53.8883737 31.1246656,55.9824387 C30.5963488,56.6578058 29.9461963,57.2406568 29.3497095,57.8637168 C29.3112733,57.9039257 29.2539816,57.9259872 29.1361346,58 C29.1901629,57.8622934 29.2097436,57.7964647 29.2409278,57.7363293 C30.3142413,55.67251 31.2240196,53.5432178 31.8999171,51.3214095 C32.3752935,49.7582443 32.7719844,48.18049 32.7640071,46.532637 C32.7607436,45.9127796 32.7650949,45.9120679 32.1483022,45.8629632 C30.66053,45.7448274 29.2358513,45.3914873 27.9163283,44.7015311 C26.8484538,44.1435882 25.9502789,43.4031041 25.4897693,42.2555494 C25.4640243,42.1907882 25.4531461,42.1199778 25.4252255,42.0146519 C25.5695426,42.0146519 25.6830383,42.0061119 25.7954461,42.0157194 C27.34051,42.1477326 28.831183,41.9698172 30.220689,41.2499712 C31.8437132,40.4094986 32.9935366,39.1299306 33.7531961,37.50663 C33.9638701,37.0565039 34.1371958,36.5871629 34.2960172,36.1163986 C34.3902947,35.8381388 34.4058868,35.7171563 34.002669,35.6737449 C32.9152137,35.5570324 31.9332769,35.1211395 31.00283,34.5742274 C28.6049169,33.1633578 26.739672,31.2258584 25.2761944,28.909755 C24.8240248,28.194179 24.4654075,27.4216701 24.0582011,26.6779835 C23.9305638,26.4452701 24.0201274,26.3648523 24.2558213,26.3730364 C24.5020307,26.3815763 24.7478776,26.3979446 24.9995261,26.4111103 C24.8907443,26.6260322 24.7297473,26.8110642 24.7192317,27.0039246 C24.7094413,27.1868217 24.8149597,27.4163326 24.946223,27.5558184 C25.1561718,27.7789243 25.5383585,27.7440529 25.7700637,27.5405176 C26.0333156,27.3092275 26.0402051,26.9896914 25.8172025,26.4847673 C26.4187657,26.6840326 27.0319324,26.8555431 27.6139149,27.0996431 C27.7799884,27.1697418 27.9094387,27.436615 27.9623792,27.6369478 C28.4576989,29.5168025 29.7358849,30.6120501 31.5616058,31.2034411 C32.7480524,31.5877385 33.9645953,31.7777522 35.2032572,31.8663541 C35.2525716,31.8699124 35.3036991,31.8489184 35.3533761,31.8393109 C35.3678803,31.8101328 35.3827472,31.7809547 35.3972514,31.7517765 C35.005637,31.513014 34.6336033,31.2343984 34.2187821,31.0440288 C33.3920406,30.6647131 32.5486191,30.3181338 31.699396,29.989346 C31.0963823,29.7562768 30.9607677,29.3417337 31.3712377,28.7403795 C31.5351355,28.8496196 31.7004838,28.9588597 31.8647443,29.0691673 C33.2081993,29.9701311 34.6524588,30.6647131 36.2145652,31.119465 C37.6842071,31.5471738 39.022223,31.2084227 40.2833664,30.4455212 C40.4537912,30.3423303 40.6336438,30.2035562 40.7228448,30.0366715 C40.805519,29.8822409 40.8609977,29.5861896 40.7736097,29.494741 C40.4661198,29.1730699 40.4073777,28.7951774 40.3751057,28.3361556" id="Fill-4" fill="#FFFFFF"></path>
            <path d="M40,21 C38.1275688,20.6741934 36.5122514,18.5580846 37.1363952,17.5116532 C37.2816645,17.6859979 37.3722971,17.799322 37.4693575,17.9111932 C37.7020455,18.1788849 37.9038798,18.4574732 38.1834911,18.7084569 C38.377612,18.8831648 38.6205845,18.8777166 38.8294895,18.6692294 C39.2800814,18.2195653 39.4060671,17.7292209 39.3655717,17.2319753 C39.3212196,16.6842424 39.1746647,16.1386888 39.0711764,15.5924087 C39.0358233,15.404625 38.9959707,15.2168412 38.9586892,15.0294207 C39.0287527,15.0196138 39.1001017,15.0098069 39.1701652,15 C39.3745707,15.3879169 39.6246139,15.7707488 39.7737399,16.1652037 C40.1247002,17.089957 39.9029395,18.0118046 39.6355412,18.93002 C39.4510621,19.5609298 39.5725483,20.1751317 39.9183664,20.7798898 C39.9562907,20.846722 39.9697891,20.9175495 40,21" id="Fill-6" fill="#FFFFFF"></path>
            <path d="M26.292388,26 L26.7587823,26.0546186 C26.7432891,26.0945389 26.8490043,26.2042757 26.8885071,26.2493599 C26.9408524,26.3091009 26.9279101,26.3046934 26.9642186,26.3738541 C27.0343931,26.5075232 26.9829456,26.6562236 26.9642186,26.7570505 C26.9262873,26.9612739 26.5245385,27.0343555 26.3735212,26.9852903 C26.1356367,26.908175 25.923722,26.5385869 26.0266794,26.2493599" id="Fill-10" fill="#FFFFFF"></path>
            <polygon id="Fill-12" fill="#FFFFFF" points="58 24 61.7595019 24 61.7595019 31.9772314 67.2669061 31.9772314 67.2669061 24 71 24 71 41 67.2669061 41 67.2669061 35.041422 61.7595019 35.041422 61.7595019 41 58 41"></polygon>
            <path d="M79.6598887,39.266136 C78.5530501,38.1103435 78,36.4006681 78,34.1371097 L78,24 L81.6011019,24 L81.6011019,34.1371097 C81.6011019,35.0426032 81.6904464,35.7374108 81.8691355,36.2225842 C82.0481938,36.7074071 82.3457628,37.0513053 82.7629501,37.2532272 C83.1801375,37.4554996 83.7804442,37.5564606 84.5638703,37.5564606 C85.5854254,37.5564606 86.3090424,37.3016043 86.7347211,36.7922423 C87.1600307,36.2832309 87.3734238,35.3980699 87.3734238,34.1371097 L87.3734238,24 L91,24 L91,34.1371097 C91,36.3358147 90.4465807,38.0293645 89.3401113,39.2174083 C88.2329036,40.4058028 86.6409463,41 84.5638703,41 C82.4015108,41 80.7667273,40.422279 79.6598887,39.266136" id="Fill-14" fill="#FFFFFF"></path>
            <path d="M98.4962454,40.0338172 C97.3948992,39.3901608 96.5627011,38.4805248 96,37.3052584 L98.9906136,35.6873909 C99.2960202,36.3313964 99.7182203,36.8064596 100.257214,37.1122313 C100.795859,37.418003 101.491043,37.5708889 102.343113,37.5708889 C103.147071,37.5391249 103.778106,37.3981069 104.236564,37.1481839 C104.694674,36.898959 104.924077,36.5649139 104.924077,36.1460485 C104.924077,35.9690779 104.875617,35.7760508 104.779044,35.5666181 C104.650397,35.3093649 104.429709,35.1163378 104.115935,34.9871876 C103.80251,34.8583865 103.243644,34.7299345 102.440034,34.6007843 C101.635727,34.4559267 100.976454,34.3152578 100.462213,34.1780794 C99.9472753,34.0415991 99.4407048,33.8202985 98.9425016,33.5141778 C98.2190785,33.079605 97.6560287,32.5001745 97.2540496,31.7755374 C96.8520704,31.0512494 96.6512551,30.2623863 96.6512551,29.4092972 C96.6512551,29.1192329 96.6909998,28.7733199 96.7718837,28.3708601 C96.980369,27.2598197 97.5193628,26.3222594 98.3874705,25.5574811 C99.2562755,24.7930518 100.317528,24.3061208 101.571578,24.0966881 C102.150316,24.0324621 102.560314,24 102.801572,24 C104.136156,24 105.333727,24.3260169 106.39498,24.9780506 C107.456233,25.6300844 108.324689,26.576022 109,27.8155144 L106.033442,29.5056362 C105.325708,28.1212862 104.272822,27.4291111 102.874088,27.4291111 C102.616445,27.4291111 102.35148,27.4531959 102.0778,27.5013654 C101.531136,27.5823461 101.085228,27.7635053 100.73938,28.0448432 C100.393183,28.3265302 100.196551,28.6689526 100.148439,29.0710634 C100.116016,29.183808 100.100327,29.3366938 100.100327,29.529721 C100.100327,30.0288689 100.337052,30.3911874 100.811897,30.6166766 C101.286044,30.8421658 102.013651,31.0351929 102.994368,31.196107 C103.878513,31.3409646 104.622506,31.5060674 105.225649,31.6910663 C105.828443,31.8760651 106.403347,32.2101103 106.950011,32.6932017 C107.496326,33.176293 107.874249,33.8604398 108.083432,34.745642 C108.195693,35.1966203 108.252172,35.6713344 108.252172,36.1704823 C108.252172,37.2487116 107.946417,38.1663758 107.335604,38.9231259 C106.837401,39.5835369 106.157906,40.090364 105.297817,40.4443053 C104.437379,40.7985956 103.460497,40.9839435 102.367518,41 C100.8879,41 99.5975917,40.6781718 98.4962454,40.0338172" id="Fill-16" fill="#FFFFFF"></path>
            <polygon id="Fill-18" fill="#FFFFFF" points="117 24 120.759774 24 120.759774 31.9772314 126.266633 31.9772314 126.266633 24 130 24 130 41 126.266633 41 126.266633 35.041422 120.759774 35.041422 120.759774 41 117 41"></polygon>
            <polygon id="Fill-20" fill="#FFFFFF" points="141.846282 34.4389738 140.23838 36.4147915 140.23838 41 137 41 137 24 140.23838 24 140.23838 31.1462969 145.934595 24 150 24 143.798805 31.9998756 149.26494 41 145.865538 41"></polygon>
            <polygon id="Fill-22" fill="#FFFFFF" points="157 24 167.4781 24 167.4781 27.424223 160.342492 27.424223 160.342492 31.8928446 165.723925 31.8928446 165.723925 34.9530201 160.342492 34.9530201 160.342492 37.5515539 168 37.5515539 168 41 157 41"></polygon>
            <polygon id="Fill-24" fill="#FFFFFF" points="181.046714 35.1388039 175 24 179.006205 24 182.863498 31.1257548 186.968977 24 191 24 184.579929 35.1873191 184.579929 41 181.046714 41"></polygon>
        </g>
    </g>
</svg>